<svg width="425" height="523" viewBox="0 0 425 523" fill="none" xmlns="http://www.w3.org/2000/svg">
<g clip-path="url(#clip0_219_1237)">
<path d="M9.81036 392.04C6.27036 362.45 6.81036 331.71 11.6504 300.86C40.6204 118.05 212.35 -6.69994 395.4 22.2101L396.37 391.09L9.81036 392.03V392.04Z" fill="#009BA7"/>
<path d="M419.28 522.4C346.65 512.54 262.02 476.17 183.84 415.99C30.4304 298.15 -41.0496 134.13 24.1004 49.4401C59.3104 3.55007 127.6 -9.65993 207.05 6.76007L211.53 8.27007L209.17 8.01007C146.28 2.29007 93.5004 17.7401 64.0104 56.2601C-1.13956 141.08 70.5604 305.08 223.78 422.69C288.46 472.44 357.51 505.82 420.19 521.56L424.05 522.74L419.27 522.4H419.28Z" fill="#AD1640"/>
</g>
<defs>
<clipPath id="clip0_219_1237">
<rect width="424.06" height="522.74" fill="white"/>
</clipPath>
</defs>
</svg>
